<?xml version="1.0" encoding="UTF-8"?>
<svg id="Layer_1" xmlns="http://www.w3.org/2000/svg" width="326" height="181" xmlns:xlink="http://www.w3.org/1999/xlink" version="1.1" viewBox="0 0 326 181">
  <!-- Generator: Adobe Illustrator 29.4.0, SVG Export Plug-In . SVG Version: 2.1.0 Build 152)  -->
  <defs>
    <style>
      .st0 {
        mask: url(#mask);
      }

      .st1 {
        fill: #69a6c2;
        stroke: #69a6c2;
      }

      .st2 {
        fill: #fff;
      }
    </style>
    <mask id="mask" x="-3.3" y="-15.7" width="387.2" height="213.9" maskUnits="userSpaceOnUse">
      <g id="mask0_54_3855">
        <path class="st2" d="M364.8-15.7H-3.3v213.9h368.1V-15.7Z"/>
      </g>
    </mask>
  </defs>
  <g class="st0">
    <path class="st1" d="M382.3,95.1c-14.5-1.9-29.5,1.1-43.5,4.9-34.2,9.3-66.2,26.7-100.5,35.9-14,3.8-28.4,6.2-42.8,4.7-9.9-1.1-25.5-3.8-29.4-16.3-1.7-5.6-.1-11,.7-16.5,1.3-8.8,2.6-17.7,3.9-26.5,1.8-12.4,3.6-24.7,5.5-37.1.6-4.3,1.3-8.6,1.9-12.9.3-2.1,0-4.1-1.9-4.9-1.4-.6-3.2-.7-4.7-1-20.5-3.9-41-8-61.6-11.4-3.6-.6-7.3-1.3-11-1.2-3.5.1-6.4,1.2-9.3,2.8,0,0,0-.2,0-.3.1-1.2.5-3.2-1-3.5-1.1-.2-2.2,1-3,1.7-3.8,3-7.5,6-11.2,9-3.3,2.7-6.9,5.2-10.1,8.1-2.3,2.1-2.5,4.7-2.9,7.7-.4,2.7-.8,5.5-1.2,8.2-2.4,16.2-4.8,32.3-7.2,48.5-10.1,0-20.3.7-30.3,2-6.6.8-13.4,1.9-20,3.5v.5c7.5-1.9,15.2-2.9,22.6-3.8,9.2-1.1,18.4-1.6,27.7-1.7-.9,5.8-1.7,11.5-2.6,17.3-1.4,9.5-2.9,19.1-4.3,28.6-.5,3.1-1.9,7.8,1.9,8.9.8.2,1.7.3,2.6.5,14.5,2.8,29,5.5,43.5,8.3,17,3.2,34.1,6.5,51.1,9.7,3,.6,6.1,1.4,9.2,1.7,2.3.2,3.4-1.4,3.8-3.7.5-3.1.9-6.1,1.4-9.2,1-6.5,2-13.1,3-19.6.9-5.6.9-11-2.2-15.8-2.3-3.6-5.6-6.3-8.8-8.6-8.7-6.1-18.8-10-28.7-13-3.8-1.1-7.7-2.1-11.6-2.9.7-.8,1.5-1.6,2.2-2.4,5.7-6.3,11.5-12.6,17.1-19,2.8-3.2,5.6-6.4,8.2-9.8.1-.2.3-.4.4-.5,0,.2,0,.3,0,.5,0,2.4-2.4,5.4-3.6,7.1-3.1,4.2-6.9,7.7-9.9,12.1-.4.6-2.5,3.4-.9,3.6.6,0,1.5-1,1.9-1.4,1.1-1.1,2.2-2.3,3.2-3.5,4.2-4.9,8.9-9.4,12.4-15.1,1.6-2.6,2.8-5.3,1.6-8.4-.1-.4-.3-.6-.4-1,.4-.8.8-1.9.7-2.8,0-.4-.2-.8-.4-1.1,0,0,.2-.3.2-.3.7-.8,1.1-1.1,1.7-1.7.7-.7,1.6-1.4,1.4-2.6-.5-2.6-2.4-1.8-3.6-.7-.6.6-1.5,1.4-1.6,2.4,0,1.2,1,1.8,1.5,2.8-.3.5-.6,1.1-.7,1.7-.1.8.1,1.5.4,2.2-.8,1.7-2.2,3.4-3.1,4.5-.2.3-.4.5-.6.8-.3-1.1-.8-2.1-.8-3.3-.2-2.7.9-4.4,1.7-6.7.2-.5.6-1.3.2-1.8-1-1.2-3.9,1.8-4.6,2.4-2.9,2.6-5.5,5.5-8.2,8.4-5.6,6.2-11.2,12.3-16.6,18.6-2.5,2.8-4.9,5.6-7.3,8.5-1.8,2.2-3.1,4.1-5.8,4.8-6.9,1.8-14.6.4-21.5-.1-7.7-.6-15.4-.9-23-.8.6-4.2,1.3-8.4,1.9-12.7,2.3-15.2,4.9-30.4,6.7-45.6.4-3.2,1.4-4.9,3.7-6.8,1.5-1.2,3-2.4,4.5-3.6,4-3.3,8.1-6.5,12.1-9.8,1.4-1.1,2.7-2.2,4.1-3.3.3-.2.6-.5.9-.7,2-1.2,1.9,1.6,1.7,3.1,0,0,0,0,0,0-.8.5-1.7,1-2.5,1.6-4,2.7-8.1,5.3-12.1,8.1-1.3.9-9.1,5.2-6.3,8,1,1,3.5.9,4.7,1.2,2.7.6,5.5,1.1,8.2,1.7,1.7.3,4.1,1,5.3-.8.7-1.2.7-3.1.9-4.5.8-5,1.6-9.9,2.2-14.9,1.9-1.1,3.8-2,6-2.5,4.3-.8,8.6-.1,12.9.6,4.3.7,8.5,1.4,12.8,2.2,10.9,2,21.8,4,32.7,6.1,4.7.9,9.4,1.8,14.1,2.7,1.8.3,3.5.7,5.3,1,.7.1,1.3.2,2,.4,2.2.6,2.8,2.4,2.5,4.7-1.4,9.9-2.9,19.7-4.4,29.6-2.5,17.1-4.6,34.4-7.7,51.4-1.2,6.3-.8,12.8,3.2,17.8,3.2,3.9,7.6,6.2,12,7.8,6.2,2.2,12.8,3.3,19.3,3.6,13.6.7,27.2-1.9,40.3-5.6,16-4.5,31.6-10.5,47.1-16.7,16.5-6.6,33-13.5,50-18.2,14-3.9,28.7-7,43.2-5.5.9,0,1.8.2,2.7.4v-.5c-.4,0-.7-.1-1.1-.2ZM143.3,59.5c-.5-1.2-.1-2.1.3-3.1.4.7.3,1.8-.3,3.1ZM143.4,55.1c-.8-1.9-2-2.2,1.2-4.6,1.2-.9,1.8-.5,2.1.8.3,1.3-.4,1.6-1.2,2.4-.6.6-1.2,1.2-1.8,1.9,0-.1-.2-.3-.3-.5ZM139.6,66.2c0-.2,0-.4,0-.6,1.3-1.6,2.6-3.3,3.6-5.2,0,0,0-.2.1-.2.2.4.3.7.5,1.1.8,2.7-.3,5.1-1.6,7.3-2,3.4-4.6,6.3-7.2,9.2-2.1,2.4-4.2,4.9-6.3,7.3-.5.6-2.7,3.5-3.4,3.4-1.1-.2,1.6-3.7,2.1-4.3,3.8-4.8,9-9.3,11.6-15.2.4-.9.8-1.8.7-2.8ZM77.1,96.5c6.5.5,13.4,1.5,19.9.3,1.8-.3,3.6-.9,4.9-2.4,2.1-2.4,4-4.9,6-7.3,5.1-5.9,10.3-11.7,15.5-17.5,2.7-3.1,5.5-6.2,8.3-9.1,1.2-1.2,2.4-2.5,3.6-3.7.8-.7,3.1-3.3,4.2-3.2,1.3.1,0,2.1-.3,2.8-.3.6-.5,1.2-.7,1.8-.4,1.5-.5,3-.3,4.5.1.9.6,1.9.9,2.8-1.9,2.5-3.9,4.9-5.9,7.2-5.4,6.4-11.1,12.4-16.7,18.6-1.9,2.1-3.8,4.3-5.8,6.4-.6-.1-1.2-.2-1.8-.3-2.8-.5-5.8-1-8.6-.6-.7.1-1.3.3-1.8.7-1.9,1.6-3.5,4.3-5,6.3-3.5,4.7-7.3,9.5-10.1,14.8-.5.9-2.8,4.9-.8,5.2,1.5.2,3.6-1.9,4.7-2.7,3-2.3,5.8-4.8,8.6-7.4,5.1-4.9,10-10.2,14.9-15.5,1.5.3,3,.6,4.5,1,10,2.4,19.9,5.8,29.1,10.8,8,4.3,18.6,11,18.3,22.7,0,2.7-.7,5.4-1.1,8-.5,3.1-1,6.3-1.4,9.4-.5,3.4-1,6.7-1.5,10.1-.4,2.5-.4,7.1-1.9,8.9-1.3,1.5-2.9.9-4.5.6-2-.4-4.1-.8-6.1-1.2-7-1.3-14-2.7-21-4-17.7-3.4-35.5-6.7-53.2-10.1-6.3-1.2-12.5-2.4-18.8-3.6-1.5-.3-3-.5-4.5-.9-.2,0-.4,0-.6-.1-3-.9-2.2-4.1-1.8-6.6,2.4-15.9,4.8-31.8,7.2-47.7,8,0,15.9.2,23.9.8ZM110.3,98.1c-3.5,3.8-7,7.6-10.6,11.3-2.8,2.8-5.6,5.5-8.5,8.1-2.2,1.9-5,4.8-7.8,5.7-1.8.6-.7-1.7-.2-2.7.9-2.1,2.1-3.9,3.3-5.8,3.5-5.3,7.2-10.5,11.2-15.3.8-1,1.3-1.7,2.5-2,1.2-.2,2.4-.2,3.6,0,2.2.1,4.4.4,6.6.9ZM86.8,31.3c-.3,2.2-.3,4.9-2.9,5-2.6.1-5.6-1-8.2-1.5-1.9-.4-4.5-.4-6.3-1.3,0,0-.1,0-.2,0-.2,0-.4-.1-.5-.2-.8-.6-.8-1.5.3-3.1.2-.3.6-.5.8-.7.8-.7,1.7-1.3,2.6-2,4.2-3,8.5-5.8,12.8-8.6,1.3-.8,2.6-1.7,3.8-2.5-.6,5-1.4,9.9-2.2,14.9Z"/>
  </g>
</svg>