<?xml version="1.0" encoding="UTF-8"?>
<svg id="Layer_1" xmlns="http://www.w3.org/2000/svg" width="326" height="181" version="1.1" viewBox="0 0 326 181">
  <!-- Generator: Adobe Illustrator 29.4.0, SVG Export Plug-In . SVG Version: 2.1.0 Build 152)  -->
  <defs>
    <style>
      .st0 {
        fill: #69a6c2;
        stroke: #69a6c2;
      }
    </style>
  </defs>
  <path class="st0" d="M428.3,105.4h0c-16.8,0-32.5,7.2-47.6,14.2-3.7,1.7-7.5,3.4-11.2,5-12.7,5.5-27.2,10.1-37.5,2.4-3-2.2-5.3-5.3-7.6-8.3-1.4-1.9-2.8-3.8-4.4-5.5-4.8-5.1-11.4-8.7-19.1-10.5-7-1.5-14.7-1.6-22.4,0-10.6,2.1-20.5,6.5-30.2,11v-63.1c0-6-3.2-11.2-7.9-14.1-2.1-2-4.8-3.4-7.8-3.6-1.5-.1-3-.5-4.6-.9-1.2-.3-2.4-.6-3.6-.8-3.4-.5-6.8-.7-10.2-.5l-9.4.5c.4-1.5.1-3.2-.8-4.7-.8-1.3-2.1-2.5-3.9-3.5-4.7-2.7-10.3-3.2-15.3-3.7-6-.6-12.1-1.2-18.2-1-5,.1-10.4.8-16,2.1-2.6.6-5.4,1.3-7.9,2.6-2.9,1.5-5.6,3.8-8,6.9-1.3,1.8-2.5,3.4-2.9,5.3l-23.5,1.3v.4s0-.4,0-.4c-14.5.8-25.9,12.8-25.9,27.3v65.1c0,.4,0,.8,0,1.1-4.2-.5-7.9-.2-11.4.8-4.1,1.2-7.9,3.5-11.5,5.7-2.6,1.6-5.3,3.2-8,4.4-12,5.2-25.7,2.8-36.3.2-2.3-.6-4.7-1.2-7-1.8-13.6-3.6-13.8-2.8-.2.8,2.3.6,4.7,1.2,7,1.8,10.7,2.7,24.6,5.1,36.8-.2,2.8-1.2,5.5-2.9,8.1-4.4,3.6-2.2,7.3-4.4,11.3-5.6,3.5-1,7.1-1.2,11.2-.7,1.2,16.5,16.4,25.4,23,28.5.9.4,1.9.7,2.9.9,2.9,1.7,6.3,2.6,9.9,2.6s2,0,3.1-.2l102.1-15.4c6.9-1.1,13.3-4.6,17.9-9.9,4.6-5.3,7.1-12.1,7.1-19.2v-3.2c9.7-4.5,19.8-9,30.4-11.1,12.8-2.5,30.2-1.1,40.8,10.3,1.6,1.7,3,3.6,4.4,5.5,2.3,3.1,4.6,6.2,7.7,8.5,10.7,7.9,25.4,3.2,38.3-2.3,3.7-1.6,7.5-3.4,11.2-5.1,15-7,30.6-14.2,47.2-14.2h0M243,42.8c.8,3.6-.1,7.8-2.6,11.6-2.9,4.4-7.5,7.7-12.6,9-.9.2-1.9.4-2.8.6-2.9.6-5.9,1.1-8.1,3.2-2.1,2-3,5.3-2.7,9,.2,2.2.8,4.3,1.4,6.3.3.9.5,1.9.8,2.8.9,3.8,1,6.6,0,9-1.1,2.8-3.8,5.2-7.2,6.4-2.7.9-5.7,1.2-9.6.8,0,0,0,0,0,0-.5,0-1.1-.2-1.7-.2,0-.4,0-.8,0-1.2,0-.8,0-1.6,0-2.5v-7.2c0-.9-.7-1.6-1.6-1.6l-6.1-.2c-.4,0-.8-.4-.8-.8v-7.5c0-.9-.7-1.6-1.5-1.6l-9.8-.6c-.4,0-.9.1-1.2.4-.3.3-.5.7-.5,1.2v7.7c0,.2,0,.4-.2.6-.2.2-.4.2-.6.2l-7.5-.2c-.5,0-.9.2-1.2.5-.3.3-.5.7-.5,1.2v11.5c0,.3,0,.6,0,.9-7.2.8-14.1,7.3-16.1,15.5-.5,2.1-.7,4.3-.8,6.4-.2,2.4-.3,4.9-1.1,7.2-2.9,9.1-13.6,13.2-22.7,12.6-7.8-.6-15.1-3.8-22.3-7-1.5-.7-3-1.3-4.5-2,0,0,0,0-.1,0V58c0-9.2,7.2-16.8,16.4-17.2l116-5.7c.3,0,.5,0,.8,0,2.9,0,5.6.8,8,2.2,1.6,1.5,2.7,3.4,3.2,5.6ZM176.9,112.3c.3.3.8.5,1.2.4l9.8-.6c.9,0,1.5-.8,1.5-1.6v-7.5c0-.4.3-.8.8-.8h.8c1.2,0,2.4,0,3.6-.1h.7c.6,0,1.2,0,1.8,0v.5c0,.5,0,.9,0,1.4s0,1,0,1.5c0,2.6,0,4.8-.4,7.1-.7,3.6-2.4,8.6-10.4,11.3-.9.3-1.8.4-2.6.5-9.2-4.5-15.1-12.3-16.4-21.6.2,0,.5,0,.7,0l7.5-.2c.2,0,.4,0,.6.2.2.2.2.4.2.6v7.7c0,.5.2.9.5,1.2ZM197.1,100c0,.4,0,.7,0,1.1-.6,0-1.2,0-1.8,0h-.6c-1.2,0-2.4,0-3.6.1h-.8c-.9,0-1.6.8-1.6,1.7v7.5c0,.4-.3.8-.8.8l-9.8.6c-.2,0-.4,0-.6-.2-.2-.2-.3-.4-.3-.6v-7.7c0-.4-.2-.9-.5-1.2-.3-.3-.7-.5-1.2-.5h0l-7.5.2c-.3,0-.5,0-.8,0,0-.3,0-.6,0-.8v-11.4c0-.2,0-.4.2-.6.2-.2.4-.2.6-.2l7.5.2c.5,0,.9-.2,1.2-.5.3-.3.5-.7.5-1.2v-7.7c0-.2,0-.4.3-.6.2-.2.4-.2.6-.2l9.8.6c.4,0,.8.4.8.8v7.5c0,.9.7,1.6,1.6,1.6l6.1.2c.4,0,.8.4.8.8v7.2c0,.8,0,1.6,0,2.4ZM135.3,30.2c2.3-3,4.9-5.2,7.7-6.6,2.5-1.2,5.2-1.9,7.8-2.5,5.5-1.2,10.8-1.9,15.8-2.1.7,0,1.4,0,2.1,0,5.4,0,10.8.5,16,1.1,4.9.5,10.4,1,15,3.6,1.7,1,2.9,2,3.6,3.2.8,1.4,1.1,3,.6,4.3l-6,.3c-.3-.3-.5-.7-.9-1-1.2-1.1-2.9-2-4.4-2.8-.3-.2-.7-.4-1-.6-4.3-2.4-8-3.6-11.7-3.8-1.8,0-3.5.1-5.2.3-1.5.2-3,.3-4.5.3-1.5,0-3-.2-4.5-.4-1.2-.1-2.3-.3-3.5-.4-3.8-.2-7.6.4-11.3,1-2.2.4-4.7.8-6.7,2.1-1.9,1.2-3.3,3.1-4.5,4.8l-1.7,2.4c-.5.7-.8,1-1.6,1.1-1.1.2-2.2.3-3.3.3h-.5c.4-1.6,1.5-3.1,2.7-4.7ZM203.5,32c-.8,1.1-2.2,1.7-3.3,1.3-.7-.2-1.1-.6-1.5-1.1l4.9-.3ZM132.5,35.8h.7c1.1,0,2.3-.2,3.4-.4,1-.2,1.5-.6,2.1-1.4l1.7-2.4c1.2-1.7,2.5-3.4,4.3-4.6,1.9-1.2,4.3-1.6,6.4-2,3.6-.6,7.4-1.2,11.1-1,1.2,0,2.3.2,3.5.4,1.5.2,3,.4,4.6.4,1.6,0,3.1-.2,4.6-.3,1.7-.2,3.4-.4,5.1-.3,3.5.1,7.1,1.3,11.3,3.7.3.2.7.4,1,.6,1.5.8,3.1,1.7,4.2,2.7.1.1.3.3.4.4l-47.8,2.6c-.8,0-1.6,0-2.4.1-.9,0-1.8.1-2.8.2h-.3c-1.1,0-2.2.1-3.2.5-.5.2-1.2.6-1.5.9,0,0-.2.2-.3.2-.3.3-.5.5-.9.7-.8.5-2,.7-3.3.7-1.2,0-1.8-.4-2-1,0-.2,0-.5,0-.7ZM83.1,128.7V63.6c0-14.1,11-25.8,25.1-26.5l23.4-1.3c0,.3,0,.6,0,.9.3,1,1.2,1.5,2.8,1.6,1.5,0,2.8-.2,3.8-.8.4-.2.7-.5,1-.8,0,0,.2-.2.2-.2.3-.3.8-.6,1.2-.7.9-.3,1.9-.4,3-.4h.3c.9,0,1.9-.1,2.8-.2.8,0,1.6-.1,2.4-.1l48.4-2.6c.6.7,1.2,1.5,2.3,1.8,1.7.5,3.7-.5,4.6-2.2l9.8-.5c3.3-.2,6.7,0,10,.5,1.2.2,2.4.5,3.5.8,1.5.4,3.1.8,4.7.9,1.4.1,2.7.5,4,1.1-1.7-.5-3.5-.7-5.4-.6l-116,5.7c-9.6.5-17.1,8.4-17.1,18v76.3c-5.7-2.4-10.4-3.8-14.8-4.4,0-.4,0-.8,0-1.2ZM105.7,158.3c-6.4-3-21.3-11.6-22.5-27.6,4.3.6,9,2,14.7,4.4v7.2c0,6.6,3.2,12.5,8,16.2,0,0-.2,0-.3-.1ZM108.5,159.2c-5.8-3.4-9.7-9.7-9.7-16.9v-6.8c1.4.6,2.9,1.3,4.3,1.9,7.2,3.2,14.6,6.5,22.5,7.1,9.4.7,20.5-3.6,23.5-13.1.8-2.4.9-5,1.1-7.4.1-2.1.3-4.2.8-6.2,1.9-7.8,8.5-14.1,15.4-14.9,1.2,9.2,6.9,17,15.7,21.7-.9,0-1.9.2-2.8.4-6.2,1.5-11.7,6.1-14.3,12-.6,1.4-1.1,2.9-1.6,4.4-.9,2.9-1.8,5.6-3.7,7.8-2.7,3.1-7,4.3-10.9,5.1-14.9,3.4-26.5,4.9-38.9,5.1-.5,0-1,0-1.5,0ZM247.5,117.8c0,14.2-10.2,26.1-24.3,28.3l-102.1,15.4c-1,.1-2,.2-2.9.2-2.8,0-5.5-.6-7.9-1.7,12.4-.2,24-1.7,38.8-5.1,4-.9,8.5-2.1,11.3-5.4,2-2.3,3-5.2,3.9-8.1.5-1.4.9-2.9,1.5-4.3,2.5-5.7,7.8-10.1,13.8-11.5,1-.2,2.1-.3,3.1-.4.3,0,.6,0,.9,0,3.4,1.6,7.1,2.7,11,3.3,2.3.3,4.7.5,7,.5,13.1,0,25.9-4.9,36-9.4,2.9-1.3,5.8-2.7,8.6-4,.4-.2.9-.4,1.3-.6v2.8ZM247.5,114.1c-.5.3-1.1.5-1.6.8-2.8,1.3-5.7,2.7-8.6,4-11.8,5.3-27.3,11-42.6,8.8-3.4-.5-6.6-1.4-9.6-2.7.5,0,1-.2,1.5-.4,8.4-2.8,10.2-8.1,10.9-11.9.4-2.4.4-4.8.4-7.3,0-.5,0-1,0-1.5s0-.9,0-1.4v-.4c.5,0,1.1,0,1.5.2,0,0,.1,0,.2,0,4,.4,7.2.1,10-.8,3.6-1.2,6.5-3.8,7.7-6.8,1-2.5,1-5.6,0-9.5-.2-1-.5-1.9-.8-2.9-.6-2-1.2-4.1-1.4-6.2-.4-3.5.5-6.5,2.4-8.4,2-1.9,4.9-2.5,7.7-3,.9-.2,1.9-.4,2.9-.6,5.3-1.3,10.1-4.7,13.1-9.3,2.6-3.9,3.6-8.4,2.7-12.2-.3-1.2-.8-2.4-1.4-3.5,3.1,2.9,5.1,7,5.1,11.5v63.5Z"/>
</svg>