<?xml version="1.0" encoding="utf-8"?>
<!-- Generator: Adobe Illustrator 27.4.1, SVG Export Plug-In . SVG Version: 6.00 Build 0)  -->
<svg version="1.1" id="Layer_1" xmlns="http://www.w3.org/2000/svg" xmlns:xlink="http://www.w3.org/1999/xlink" x="0px" y="0px"
	 viewBox="0 0 24.4 19.1" style="enable-background:new 0 0 24.4 19.1;" xml:space="preserve">
<style type="text/css">
	.st0{fill:#046B99;}
</style>
<path class="st0" d="M2.6,17.9c-0.6,0-1.1-0.2-1.5-0.6c-0.4-0.4-0.6-0.9-0.6-1.5V3c0-0.6,0.2-1.1,0.6-1.5C1.5,1.1,2,0.9,2.6,0.9
	h16.7c0.6,0,1.1,0.2,1.5,0.6c0.4,0.4,0.6,0.9,0.6,1.5v12.8c0,0.6-0.2,1.1-0.6,1.5c-0.4,0.4-0.9,0.6-1.5,0.6H2.6z M19.3,5.1l-7.8,5
	c-0.1,0.1-0.2,0.1-0.3,0.1c-0.1,0-0.2,0-0.3,0c-0.1,0-0.2,0-0.3,0c-0.1,0-0.2-0.1-0.3-0.1l-7.8-5v10.7h16.7V5.1z M10.9,8.3L19.3,3
	H2.6L10.9,8.3z M2.6,5.4V3.8v0v0V5.4z"/>
</svg>
