<?xml version="1.0" encoding="UTF-8"?>
<svg id="Layer_1" xmlns="http://www.w3.org/2000/svg" version="1.1" viewBox="0 0 32 32">
  <!-- Generator: Adobe Illustrator 30.2.1, SVG Export Plug-In . SVG Version: 2.1.1 Build 1)  -->
  <path d="M27.5,2.9h-3v-1.5c0-.7-.5-1.2-1.2-1.2s-1.2.5-1.2,1.2v1.5h-12.4v-1.5c0-.7-.5-1.2-1.2-1.2s-1.2.5-1.2,1.2v1.5h-3c-2.1,0-3.9,1.7-3.9,3.9v21c0,2.1,1.7,3.9,3.9,3.9h23c2.1,0,3.9-1.7,3.9-3.9V6.8c0-2.1-1.7-3.9-3.9-3.9ZM29.2,27.8c0,.9-.8,1.7-1.7,1.7H4.5c-.9,0-1.7-.8-1.7-1.7v-15.8h26.4v15.8ZM29.2,9.8H2.8v-3.1c0-.9.8-1.7,1.7-1.7h3v1.5c0,.7.5,1.2,1.2,1.2s1.2-.5,1.2-1.2v-1.5h12.4v1.5c0,.7.5,1.2,1.2,1.2s1.2-.5,1.2-1.2v-1.5h3c.9,0,1.7.8,1.7,1.7v3.1Z" style="fill: #fde0a0;"/>
  <rect x="11.1" y="14.1" width="2.6" height="2.6" rx=".3" ry=".3" style="fill: #fde0a0;"/>
  <rect x="15.8" y="14.1" width="2.6" height="2.6" rx=".3" ry=".3" style="fill: #fde0a0;"/>
  <path d="M18,25.5c.2.2.5.4.9.4s.6-.1.9-.4l7.1-7.1c.5-.5.5-1.3,0-1.7-.5-.5-1.3-.5-1.7,0l-6.2,6.2-2.6-2.6c-.5-.5-1.3-.5-1.7,0s-.5,1.3,0,1.7l3.5,3.5Z" style="fill: #fde0a0;"/>
  <rect x="6.3" y="14.1" width="2.6" height="2.6" rx=".3" ry=".3" style="fill: #fde0a0;"/>
  <rect x="6.3" y="18.6" width="2.6" height="2.6" rx=".3" ry=".3" style="fill: #fde0a0;"/>
  <rect x="6.3" y="23.1" width="2.6" height="2.6" rx=".3" ry=".3" style="fill: #fde0a0;"/>
</svg>