<?xml version="1.0" encoding="utf-8"?>
<!-- Generator: Adobe Illustrator 27.4.1, SVG Export Plug-In . SVG Version: 6.00 Build 0)  -->
<svg version="1.1" id="Layer_1" xmlns="http://www.w3.org/2000/svg" xmlns:xlink="http://www.w3.org/1999/xlink" x="0px" y="0px"
	 viewBox="0 0 48 48" style="enable-background:new 0 0 48 48;" xml:space="preserve">
<style type="text/css">
	.st0{fill-rule:evenodd;clip-rule:evenodd;fill:#EEF8FB;}
</style>
<g>
	<path class="st0" d="M40.8,28.6h-4.7L31,21c-0.7-1.1-1.9-1.7-3.2-1.7h-1.1v-2.8c0-0.8-0.7-1.5-1.5-1.5h-2.4V9.8
		c1.2-0.6,2-1.7,2-3.1c0-1.9-1.5-3.4-3.4-3.4c-1.9,0-3.4,1.5-3.4,3.4c0,1.4,0.8,2.5,2,3.1V15h-2.4c-0.8,0-1.5,0.7-1.5,1.5v2.8H13
		c-1.5,0-2.9,0.9-3.5,2.3l-3.2,7.1c-2.6,0.2-4.6,2.4-4.6,5v7.1c0,0.8,0.7,1.5,1.5,1.5h3.3c0.6,3.2,3.2,4.7,5.5,4.7c0,0,0,0,0,0
		c2.4,0,5-1.4,5.5-4.7h13.5c0.6,3.2,3.2,4.7,5.5,4.7h0c2.4,0,5-1.4,5.5-4.7h2.1c0.8,0,1.5-0.7,1.5-1.5v-7.1
		C45.8,30.9,43.6,28.6,40.8,28.6z M23,28.6v-6.4h4.8c0.3,0,0.5,0.1,0.7,0.4l4,6H23z M12.2,22.8C12.2,22.8,12.2,22.8,12.2,22.8
		c0.1-0.3,0.4-0.5,0.8-0.5h7v6.4H9.6L12.2,22.8z M42.8,33.7v5.5h-0.9c-0.8-2.2-2.8-3.5-5.2-3.5c-2.4,0-4.4,1.3-5.2,3.5H17.3
		c-0.8-2.2-2.8-3.5-5.2-3.5c0,0,0,0,0,0c-2.4,0-4.4,1.3-5.2,3.5H4.8v-5.5c0-1.1,0.9-2,2-2h34C41.9,31.7,42.8,32.6,42.8,33.7z
		 M9.5,41.3c0-1.2,0.8-2.6,2.6-2.6c1.8,0,2.6,1.4,2.6,2.6c0,1.2-0.8,2.6-2.6,2.6C10.3,43.9,9.5,42.6,9.5,41.3z M34.1,41.3
		c0-1.2,0.8-2.6,2.6-2.6c1.8,0,2.6,1.4,2.6,2.6c0,1.2-0.8,2.6-2.6,2.6C34.9,43.9,34.1,42.6,34.1,41.3z"/>
	<path class="st0" d="M14.1,11.9c0.6,0.6,1.5,0.6,2.1,0c0.6-0.6,0.6-1.5,0-2.1c-1.7-1.7-1.7-4.5,0-6.2v0c0.6-0.6,0.6-1.5,0-2.1
		c-0.6-0.6-1.5-0.6-2.1,0C11.3,4.4,11.3,9,14.1,11.9C14.1,11.9,14.1,11.9,14.1,11.9z"/>
	<path class="st0" d="M26.4,9.8c-0.6,0.6-0.6,1.5,0,2.1c0.6,0.6,1.5,0.6,2.1,0c2.9-2.9,2.9-7.5,0-10.4c-0.6-0.6-1.5-0.6-2.1,0
		c-0.6,0.6-0.6,1.5,0,2.1C28.1,5.3,28.1,8.1,26.4,9.8C26.4,9.8,26.4,9.8,26.4,9.8z"/>
</g>
</svg>
