<?xml version="1.0" encoding="utf-8"?>
<!-- Generator: Adobe Illustrator 27.4.1, SVG Export Plug-In . SVG Version: 6.00 Build 0)  -->
<svg version="1.1" id="Layer_1" xmlns="http://www.w3.org/2000/svg" xmlns:xlink="http://www.w3.org/1999/xlink" x="0px" y="0px"
	 viewBox="0 0 40.3 39.9" style="enable-background:new 0 0 40.3 39.9;" xml:space="preserve">
<defs>
	<filter id="Adobe_OpacityMaskFilter" filterUnits="userSpaceOnUse" x="3.2" y="1" width="34" height="38">
		<feColorMatrix  type="matrix" values="1 0 0 0 0  0 1 0 0 0  0 0 1 0 0  0 0 0 1 0"/>
	</filter>
</defs>
<mask maskUnits="userSpaceOnUse" x="3.2" y="1" width="34" height="38" id="mask0_196_6500_00000029725135001361290200000007702815808816424330_">
	<rect x="-3.8" y="-2" style="fill:#DAD9D9;filter:url(#Adobe_OpacityMaskFilter);" width="48" height="48"/>
</mask>
<g style="mask:url(#mask0_196_6500_00000029725135001361290200000007702815808816424330_);">
	<path style="fill:#FFFFFF;" d="M17.3,29.4L30.8,16l-2.1-2.1L17.3,25.2l-5.7-5.7l-2.1,2.1L17.3,29.4z M6.8,39c-1,0-1.8-0.4-2.6-1.1
		c-0.7-0.7-1.1-1.6-1.1-2.6V8.6c0-1,0.4-1.8,1.1-2.6C4.9,5.3,5.8,5,6.8,5h8.9c0.1-1.1,0.6-2.1,1.5-2.8C18,1.4,19,1,20.2,1
		c1.2,0,2.2,0.4,3,1.2C24,2.9,24.5,3.9,24.6,5h8.9c1,0,1.8,0.4,2.6,1.1c0.7,0.7,1.1,1.6,1.1,2.6v26.8c0,1-0.4,1.8-1.1,2.6
		c-0.7,0.7-1.6,1.1-2.6,1.1H6.8z M6.8,36h26.8c0.2,0,0.3-0.1,0.4-0.2c0.1-0.1,0.2-0.3,0.2-0.4V8.6c0-0.2-0.1-0.3-0.2-0.4
		C33.8,8,33.7,8,33.5,8H6.8C6.6,8,6.5,8,6.3,8.2C6.2,8.3,6.2,8.4,6.2,8.6v26.8c0,0.2,0.1,0.3,0.2,0.4C6.5,35.9,6.6,36,6.8,36z
		 M20.2,6.7c0.4,0,0.8-0.1,1.1-0.4c0.3-0.3,0.4-0.6,0.4-1.1c0-0.4-0.1-0.8-0.4-1.1c-0.3-0.3-0.6-0.4-1.1-0.4s-0.8,0.1-1.1,0.4
		c-0.3,0.3-0.4,0.6-0.4,1.1c0,0.4,0.1,0.8,0.4,1.1C19.4,6.5,19.7,6.7,20.2,6.7z"/>
</g>
</svg>
