<?xml version="1.0" encoding="utf-8"?>
<!-- Generator: Adobe Illustrator 27.4.1, SVG Export Plug-In . SVG Version: 6.00 Build 0)  -->
<svg version="1.1" id="Layer_1" xmlns="http://www.w3.org/2000/svg" xmlns:xlink="http://www.w3.org/1999/xlink" x="0px" y="0px"
	 viewBox="0 0 32 32" style="enable-background:new 0 0 32 32;" xml:space="preserve">
<style type="text/css">
	.st0{fill:#FDE0A0;}
	.st1{fill:#FDE0A0;filter:url(#Adobe_OpacityMaskFilter);}
	.st2{mask:url(#mask0_1537_4545_00000038377546429396195410000009042653595373701766_);}
</style>
<path class="st0" d="M10.9,16.3l3.7,3.7l8.1-8.1c0.2-0.2,0.5-0.3,0.8-0.3s0.6,0.1,0.8,0.3c0.2,0.2,0.3,0.5,0.3,0.8
	c0,0.3-0.1,0.6-0.3,0.8L20,17.9l-4.4,4.4c-0.3,0.3-0.6,0.4-1,0.4s-0.7-0.1-1-0.4L9.2,18c-0.2-0.2-0.3-0.5-0.3-0.8
	c0-0.3,0.1-0.6,0.3-0.8c0.2-0.2,0.5-0.3,0.8-0.3C10.4,16,10.7,16.1,10.9,16.3z"/>
<defs>
	<filter id="Adobe_OpacityMaskFilter" filterUnits="userSpaceOnUse" x="2.6" y="0.5" width="26.8" height="30">
		<feColorMatrix  type="matrix" values="1 0 0 0 0  0 1 0 0 0  0 0 1 0 0  0 0 0 1 0"/>
	</filter>
</defs>
<mask maskUnits="userSpaceOnUse" x="2.6" y="0.5" width="26.8" height="30" id="mask0_1537_4545_00000038377546429396195410000009042653595373701766_">
	<path class="st1" d="M-2.9-1.9h37.8V36H-2.9V-1.9z"/>
</mask>
<g class="st2">
	<path class="st0" d="M5.4,30.5c-0.8,0-1.5-0.3-2-0.8c-0.6-0.6-0.8-1.2-0.8-2V6.5c0-0.8,0.3-1.5,0.8-2c0.6-0.6,1.2-0.8,2-0.8h7
		c0.1-0.9,0.5-1.6,1.1-2.2c0.7-0.6,1.5-0.9,2.4-0.9c0.9,0,1.7,0.3,2.4,0.9c0.7,0.6,1,1.4,1.1,2.2h7c0.8,0,1.5,0.3,2,0.8
		c0.6,0.6,0.8,1.2,0.8,2v21.1c0,0.8-0.3,1.5-0.8,2c-0.6,0.6-1.2,0.8-2,0.8H5.4z M5.4,28.1h21.1c0.1,0,0.2-0.1,0.3-0.2
		c0.1-0.1,0.2-0.2,0.2-0.3V6.5c0-0.1-0.1-0.2-0.2-0.3C26.8,6.1,26.7,6,26.6,6H5.4C5.3,6,5.2,6.1,5.1,6.2C5,6.3,5,6.4,5,6.5v21.1
		C5,27.7,5,27.9,5.1,28C5.2,28.1,5.3,28.1,5.4,28.1z M16,5c0.3,0,0.6-0.1,0.8-0.3c0.2-0.2,0.3-0.5,0.3-0.8S17.1,3.2,16.8,3
		c-0.2-0.2-0.5-0.3-0.8-0.3S15.4,2.7,15.2,3c-0.2,0.2-0.3,0.5-0.3,0.8s0.1,0.6,0.3,0.8C15.4,4.9,15.7,5,16,5z"/>
</g>
</svg>
