<?xml version="1.0" encoding="UTF-8"?>
<svg id="Layer_1" xmlns="http://www.w3.org/2000/svg" width="40.3" height="39.9" xmlns:xlink="http://www.w3.org/1999/xlink" version="1.1" viewBox="0 0 40.3 39.9">
  <!-- Generator: Adobe Illustrator 29.5.1, SVG Export Plug-In . SVG Version: 2.1.0 Build 141)  -->
  <defs>
    <style>
      .st0 {
        mask: url(#mask);
      }

      .st1 {
        fill: #d9d9d9;
      }

      .st2 {
        fill: #fff;
      }
    </style>
    <mask id="mask" x="-1.1" y="-4.3" width="45.2" height="45.2" maskUnits="userSpaceOnUse">
      <g id="mask0_848_7663">
        <rect class="st1" x="-1.1" y="-4.3" width="45.2" height="45.2"/>
      </g>
    </mask>
  </defs>
  <g class="st0">
    <path class="st2" d="M20.1,39.9c-3.4,0-6.2-.5-8.4-1.5-2.2-1-3.3-2.3-3.3-3.9s.3-1.4.8-2.1c.5-.7,1.3-1.2,2.3-1.7l2.4,2.2c-.4.2-.9.4-1.4.7-.5.3-.8.5-1,.8.3.6,1.3,1.2,3,1.6,1.7.5,3.5.7,5.6.7s3.9-.2,5.6-.7c1.7-.5,2.7-1,3-1.6-.2-.3-.5-.6-1-.9-.5-.3-1-.5-1.5-.7l2.4-2.3c1,.5,1.8,1.1,2.4,1.7.6.7.8,1.4.8,2.1,0,1.6-1.1,2.9-3.3,3.9-2.2,1-5,1.5-8.4,1.5ZM20.2,29.8c3.4-2.6,5.9-5.2,7.6-7.8,1.7-2.6,2.5-5.1,2.5-7.6,0-3.6-1.1-6.3-3.3-8.1-2.2-1.8-4.5-2.7-6.8-2.7s-4.7.9-6.9,2.8c-2.2,1.8-3.3,4.5-3.3,8.1s.8,4.8,2.5,7.3c1.7,2.5,4.2,5.2,7.7,8.1ZM20.1,33.7c-4.4-3.4-7.7-6.7-9.9-9.9-2.2-3.2-3.3-6.3-3.3-9.4s.4-4.4,1.2-6.1c.8-1.7,1.8-3.2,3.1-4.4,1.3-1.2,2.7-2.1,4.2-2.7,1.6-.6,3.1-.9,4.7-.9s3.1.3,4.7.9c1.6.6,3,1.5,4.2,2.7,1.3,1.2,2.3,2.6,3.1,4.4s1.2,3.8,1.2,6.1-1.1,6.2-3.3,9.4c-2.2,3.2-5.5,6.5-9.9,9.9ZM20.1,17.9c1,0,1.9-.4,2.6-1.1.7-.7,1.1-1.6,1.1-2.7s-.4-1.9-1.1-2.7c-.7-.7-1.6-1.1-2.6-1.1s-1.9.4-2.6,1.1c-.7.7-1.1,1.6-1.1,2.7s.4,1.9,1.1,2.7c.7.7,1.6,1.1,2.6,1.1Z"/>
  </g>
</svg>