<?xml version="1.0" encoding="UTF-8"?>
<svg id="Layer_1" xmlns="http://www.w3.org/2000/svg" width="40.3" height="39.9" xmlns:xlink="http://www.w3.org/1999/xlink" version="1.1" viewBox="0 0 40.3 39.9">
  <!-- Generator: Adobe Illustrator 29.5.1, SVG Export Plug-In . SVG Version: 2.1.0 Build 141)  -->
  <defs>
    <style>
      .st0 {
        mask: url(#mask);
      }

      .st1 {
        fill: #d9d9d9;
      }

      .st2 {
        fill: #fff;
      }
    </style>
    <mask id="mask" x="-4.3" y="-4.2" width="48" height="48" maskUnits="userSpaceOnUse">
      <g id="mask0_851_7802">
        <rect class="st1" x="-4.3" y="-4.2" width="48" height="48"/>
      </g>
    </mask>
  </defs>
  <g class="st0">
    <g>
      <path class="st2" d="M12.8,21.8l4.6,4.6,10.3-10.3c.3-.3.6-.4,1.1-.4s.8.1,1.1.4c.3.3.4.6.4,1.1,0,.4-.1.8-.4,1l-11.1,11.1c-.4.4-.8.5-1.3.5s-.9-.2-1.3-.5l-5.5-5.5c-.3-.3-.4-.6-.4-1.1s.1-.8.4-1.1c.3-.3.6-.4,1.1-.4.4,0,.8.1,1,.4Z"/>
      <path class="st2" d="M6.8,38.8c-1.1,0-2.1-.4-2.9-1.2-.8-.8-1.2-1.8-1.2-3V14.8c0-.7.1-1.3.4-1.9.3-.6.7-1.1,1.2-1.5L17.3,1.6c.7-.6,1.5-.8,2.5-.8s1.7.3,2.5.8l12.9,9.9c.5.4.9.9,1.2,1.5.3.6.4,1.2.4,1.9v19.7c0,1.1-.4,2.1-1.2,3-.8.8-1.8,1.2-2.9,1.2H6.8ZM6.8,35.3h25.8c.2,0,.4,0,.5-.2.1-.1.2-.3.2-.5V14.8c0-.1,0-.2,0-.3,0,0-.1-.2-.2-.3l-12.9-9.9c-.1-.1-.3-.2-.4-.2s-.3,0-.4.2L6.4,14.3c0,0-.2.2-.2.3,0,0,0,.2,0,.3v19.7c0,.2,0,.4.2.5.1.1.3.2.5.2Z"/>
    </g>
  </g>
</svg>