<?xml version="1.0" encoding="utf-8"?>
<!-- Generator: Adobe Illustrator 27.4.1, SVG Export Plug-In . SVG Version: 6.00 Build 0)  -->
<svg version="1.1" id="Layer_1" xmlns="http://www.w3.org/2000/svg" xmlns:xlink="http://www.w3.org/1999/xlink" x="0px" y="0px"
	 viewBox="0 0 32 32" style="enable-background:new 0 0 32 32;" xml:space="preserve">
<style type="text/css">
	.st0{clip-path:url(#SVGID_00000181782185845943231710000000835194095237829278_);}
	.st1{fill:#FDE0A0;}
</style>
<g>
	<defs>
		<rect id="SVGID_1_" x="0.6" y="0.9" width="30.8" height="30.3"/>
	</defs>
	<clipPath id="SVGID_00000007426084494552689250000016351312248466005389_">
		<use xlink:href="#SVGID_1_"  style="overflow:visible;"/>
	</clipPath>
	<g style="clip-path:url(#SVGID_00000007426084494552689250000016351312248466005389_);">
		<path class="st1" d="M19.4,3.2V2.8H2.7v22.6h0.2V3.2H19.4z"/>
		<path class="st1" d="M26,23.2C26,23.2,26,23.1,26,23.2c0.5-0.8,0.8-1.6,0.8-2.5c0,0,0-0.1,0-0.1C26.7,21.5,26.5,22.4,26,23.2
			L26,23.2z"/>
		<path class="st1" d="M31.2,27.8l-3.6-3.5l0,0c1.9-2.8,1.2-6.8-1.7-8.8c-2.2-1.5-5.2-1.4-7.4,0.2c-1.6,1.2-2.5,3.1-2.5,5.1
			c0,1.7,0.7,3.3,1.9,4.5c1.2,1.2,2.9,1.8,4.5,1.8c1.2,0,3-0.6,3.7-1.5l3.7,3.7c0.3,0.3,0.7,0.3,1,0l0.5-0.4
			C31.5,28.6,31.5,28.1,31.2,27.8L31.2,27.8z M26,23.1C26,23.1,26,23.2,26,23.1c-0.2,0.3-0.4,0.5-0.6,0.7c-0.8,0.8-1.9,1.3-3.1,1.3
			c-1.2,0-2.3-0.5-3.1-1.3c-1.7-1.7-1.7-4.5,0-6.2c0.8-0.8,1.9-1.3,3.1-1.3c1.2,0,2.3,0.5,3.1,1.3c0.8,0.8,1.3,1.9,1.3,3
			c0,0,0,0.1,0,0.1C26.7,21.5,26.5,22.4,26,23.1L26,23.1z"/>
		<path class="st1" d="M12.3,10.2c-0.6,0-1.1,0.4-1.1,0.9c0,0.5,0.5,0.9,1.2,0.9h8.9c0.6,0,1.1-0.4,1.1-0.9c0-0.5-0.5-0.9-1.2-0.9
			H12.3z"/>
		<path class="st1" d="M9,7.8l15.7,0.1v4.6c0,0,1,0.3,1.4,0.5l0.7,0.4V7.2c0-0.7-0.6-1.3-1.3-1.3h-3.9V2.3c0-0.7-0.6-1.3-1.3-1.3
			H1.9c-0.7,0-1.3,0.6-1.3,1.3v24c0,0.7,0.6,1.3,1.3,1.3h4.9V30c0,0.7,0.6,1.3,1.3,1.3h16.6c0.7,0,1.3-0.6,1.3-1.3v-0.7H9V7.8L9,7.8
			z M6.8,7.2v18.2H2.7V2.8h16.7v3.1H8.1C7.4,5.9,6.8,6.4,6.8,7.2L6.8,7.2z"/>
		<path class="st1" d="M25,18.8c-0.1-0.2-0.2-0.4-0.5-0.5c-0.2-0.1-0.3-0.1-0.5-0.1c-0.3,0-0.7,0.2-0.8,0.4l-1.3,2.1l-0.4-0.4
			c0,0-0.1,0-0.1-0.1l0,0.1L21,20.1c-0.4-0.1-0.8-0.1-1,0.2c-0.2,0.2-0.3,0.4-0.3,0.6c0,0.2,0.1,0.5,0.3,0.6l1.2,1.1l0.1,0.1
			c0.2,0.2,0.4,0.3,0.7,0.3h0.1c0.3,0,0.6-0.2,0.7-0.5l2-3.1C25,19.3,25,19,25,18.8L25,18.8z"/>
		<path class="st1" d="M21.3,20.2c-0.1-0.1-0.2-0.1-0.2-0.1L21.3,20.2L21.3,20.2L21.3,20.2z"/>
	</g>
</g>
</svg>
