<?xml version="1.0" encoding="utf-8"?>
<!-- Generator: Adobe Illustrator 27.4.1, SVG Export Plug-In . SVG Version: 6.00 Build 0)  -->
<svg version="1.1" id="Layer_1" xmlns="http://www.w3.org/2000/svg" xmlns:xlink="http://www.w3.org/1999/xlink" x="0px" y="0px"
	 viewBox="0 0 40.3 39.9" style="enable-background:new 0 0 40.3 39.9;" xml:space="preserve">
<defs>
	<filter id="Adobe_OpacityMaskFilter" filterUnits="userSpaceOnUse" x="3.3" y="3.2" width="34" height="34">
		<feColorMatrix  type="matrix" values="1 0 0 0 0  0 1 0 0 0  0 0 1 0 0  0 0 0 1 0"/>
	</filter>
</defs>
<mask maskUnits="userSpaceOnUse" x="3.3" y="3.2" width="34" height="34" id="mask0_196_6492_00000151505142786481105760000000238503384095346350_">
	<rect x="-3.7" y="-3.8" style="fill:#DAD9D9;filter:url(#Adobe_OpacityMaskFilter);" width="48" height="48"/>
</mask>
<g style="mask:url(#mask0_196_6492_00000151505142786481105760000000238503384095346350_);">
	<path style="fill:#FFFFFF;" d="M10.8,29.7h13v-3h-13V29.7z M10.8,21.7h19v-3h-19V21.7z M10.8,13.7h19v-3h-19V13.7z M7,37.2
		c-1,0-1.9-0.4-2.6-1.1c-0.7-0.7-1.1-1.6-1.1-2.6V6.8c0-1,0.3-1.9,1.1-2.6C5.1,3.5,6,3.2,7,3.2h26.8c1,0,1.9,0.4,2.6,1.1
		s1,1.6,1,2.6v26.8c0,1-0.3,1.9-1,2.6c-0.7,0.7-1.6,1.1-2.6,1.1H7z M7,34.2h26.8c0.2,0,0.3-0.1,0.4-0.2c0.1-0.1,0.2-0.3,0.2-0.4V6.8
		c0-0.2-0.1-0.3-0.2-0.4c-0.1-0.1-0.3-0.2-0.4-0.2H7c-0.2,0-0.3,0.1-0.4,0.2C6.4,6.5,6.3,6.6,6.3,6.8v26.8c0,0.2,0.1,0.3,0.2,0.4
		C6.7,34.1,6.8,34.2,7,34.2z"/>
</g>
</svg>
