<?xml version="1.0" encoding="utf-8"?>
<!-- Generator: Adobe Illustrator 27.4.1, SVG Export Plug-In . SVG Version: 6.00 Build 0)  -->
<svg version="1.1" id="Layer_1" xmlns="http://www.w3.org/2000/svg" xmlns:xlink="http://www.w3.org/1999/xlink" x="0px" y="0px"
	 viewBox="0 0 48 48" style="enable-background:new 0 0 48 48;" xml:space="preserve">
<style type="text/css">
	.st0{fill:#EEF8FB;}
</style>
<g>
	<path class="st0" d="M4.9,10.5h22.8c1.4,0,2.7-0.5,3.6-1.5c1-1,1.5-2.3,1.5-3.6c0-1.4-0.5-2.7-1.5-3.6c-1-1-2.3-1.5-3.6-1.5
		c-2.2,0-4.3,1.4-5.1,3.4c-0.3,0.8,0.1,1.6,0.9,1.9c0.8,0.3,1.6-0.1,1.9-0.9c0.3-0.8,1.3-1.5,2.3-1.5c0.6,0,1.1,0.2,1.5,0.6
		c0.4,0.4,0.6,0.9,0.6,1.5c0,0.6-0.2,1.1-0.6,1.5c-0.4,0.4-0.9,0.6-1.5,0.6H4.9C4.1,7.5,3.4,8.2,3.4,9S4.1,10.5,4.9,10.5z"/>
	<path class="st0" d="M45.8,9.8c-1-1-2.3-1.5-3.6-1.5c-2.2,0-4.3,1.4-5.1,3.4c-0.3,0.8,0.1,1.6,0.9,1.9c0.8,0.3,1.6-0.1,1.9-0.9
		c0.3-0.8,1.3-1.5,2.3-1.5c0.6,0,1.1,0.2,1.5,0.6c0.4,0.4,0.6,0.9,0.6,1.5c0,0.6-0.2,1.1-0.6,1.5c-0.4,0.4-0.9,0.6-1.5,0.6H28.4
		c-0.6-2-2.5-3.4-4.7-3.4c-2.2,0-4,1.5-4.7,3.4H1.7c-0.8,0-1.5,0.7-1.5,1.5s0.7,1.5,1.5,1.5h17.4c0.5,1.5,1.7,2.7,3.2,3.2v1.9H6.9
		c-0.8,0-1.5,0.7-1.5,1.5c0,0.8,0.7,1.5,1.5,1.5h15.3v6.5h-4.3c-0.5,0-1,0.3-1.3,0.8L11,44.2c-0.3,0.5-0.2,1,0,1.5
		c0.3,0.5,0.8,0.7,1.3,0.7h22.9c0.5,0,1-0.3,1.3-0.7c0.3-0.5,0.3-1,0-1.5L30.9,34c-0.3-0.5-0.8-0.8-1.3-0.8h-4.3v-6.5H37
		c0.6,0,1.1,0.2,1.5,0.6c0.4,0.4,0.6,1,0.6,1.5c0,0.6-0.2,1.1-0.6,1.5c-0.4,0.4-1,0.6-1.5,0.6c-0.9,0-2-0.7-2.3-1.5
		c-0.3-0.8-1.2-1.2-1.9-0.9c-0.8,0.3-1.2,1.2-0.9,1.9c0.7,2,2.9,3.4,5.1,3.4c1.4,0,2.7-0.5,3.6-1.5c1-1,1.5-2.3,1.5-3.6
		c0-1.4-0.5-2.7-1.5-3.6c-1-1-2.3-1.5-3.6-1.5H25.2v-1.9c1.5-0.5,2.7-1.7,3.2-3.2h13.7c1.4,0,2.7-0.5,3.6-1.5c1-1,1.5-2.3,1.5-3.6
		C47.3,12.1,46.8,10.8,45.8,9.8z M28.7,36.2l4,7.2H14.8l4-7.2h3.4v3c0,0.8,0.7,1.5,1.5,1.5c0.8,0,1.5-0.7,1.5-1.5v-3H28.7z M23.8,19
		c-0.5,0-0.9-0.2-1.2-0.4c-0.4-0.4-0.7-0.9-0.7-1.5c0-0.6,0.3-1.1,0.7-1.5c0.3-0.3,0.8-0.4,1.2-0.4s0.9,0.2,1.2,0.4
		c0.4,0.4,0.7,0.9,0.7,1.5c0,0.6-0.3,1.1-0.7,1.5C24.6,18.9,24.2,19,23.8,19z"/>
</g>
</svg>
