<?xml version="1.0" encoding="UTF-8"?>
<svg id="Layer_1" xmlns="http://www.w3.org/2000/svg" width="40.3" height="39.9" xmlns:xlink="http://www.w3.org/1999/xlink" version="1.1" viewBox="0 0 40.3 39.9">
  <!-- Generator: Adobe Illustrator 29.5.1, SVG Export Plug-In . SVG Version: 2.1.0 Build 141)  -->
  <defs>
    <style>
      .st0 {
        mask: url(#mask);
      }

      .st1 {
        fill: #d9d9d9;
      }

      .st2 {
        fill: #fff;
      }
    </style>
    <mask id="mask" x="-4.2" y="-4.1" width="48" height="48" maskUnits="userSpaceOnUse">
      <g id="mask0_851_7717">
        <rect class="st1" x="-4.2" y="-4.1" width="48" height="48"/>
      </g>
    </mask>
  </defs>
  <g class="st0">
    <path class="st2" d="M27.2,29.9l2.3-2.3c.2-.2.3-.4.3-.7s0-.5-.3-.7l-7.2-7.2c.2-.4.3-.8.4-1.2,0-.4.1-.9.1-1.4,0-1.8-.7-3.4-2-4.7-1.3-1.3-2.9-2-4.7-2s-.6,0-.9,0c-.3,0-.6.1-.9.2-.3.1-.4.3-.5.6,0,.3,0,.5.2.8l3.5,3.6-3,3-3.6-3.6c-.2-.2-.5-.3-.8-.2-.3,0-.5.2-.6.5,0,.3-.1.6-.2.9,0,.3,0,.6,0,.9,0,1.8.7,3.4,2,4.7,1.3,1.3,2.9,2,4.7,2s.9,0,1.3-.1c.4,0,.8-.2,1.2-.4l7.2,7.2c.2.2.4.3.6.3.2,0,.5,0,.6-.3ZM19.8,39c-2.6,0-5.1-.5-7.4-1.5-2.3-1-4.3-2.4-6-4.1-1.7-1.7-3.1-3.7-4.1-6-1-2.3-1.5-4.8-1.5-7.4s.5-5.1,1.5-7.4c1-2.3,2.4-4.3,4.1-6,1.7-1.7,3.7-3.1,6-4.1,2.3-1,4.8-1.5,7.4-1.5s5.1.5,7.4,1.5c2.3,1,4.3,2.4,6,4.1,1.7,1.7,3.1,3.7,4.1,6,1,2.3,1.5,4.8,1.5,7.4s-.5,5.1-1.5,7.4c-1,2.3-2.4,4.3-4.1,6-1.7,1.7-3.7,3.1-6,4.1-2.3,1-4.8,1.5-7.4,1.5ZM19.8,36c4.5,0,8.2-1.5,11.3-4.7,3.1-3.1,4.7-6.9,4.7-11.3s-1.5-8.2-4.7-11.4c-3.1-3.1-6.9-4.7-11.3-4.7s-8.2,1.5-11.4,4.7c-3.1,3.1-4.6,6.9-4.6,11.4s1.6,8.2,4.6,11.3c3.1,3.1,6.9,4.7,11.4,4.7Z"/>
  </g>
</svg>