<?xml version="1.0" encoding="UTF-8"?>
<svg id="Layer_1" xmlns="http://www.w3.org/2000/svg" version="1.1" viewBox="0 0 32 32">
  <!-- Generator: Adobe Illustrator 30.2.1, SVG Export Plug-In . SVG Version: 2.1.1 Build 1)  -->
  <path d="M27.3,2.9h-2.8v-1.5c0-.7-.5-1.2-1.2-1.2s-1.2.5-1.2,1.2v1.5h-12.4v-1.5c0-.7-.5-1.2-1.2-1.2s-1.2.5-1.2,1.2v1.5h-3C2.2,2.9.4,4.6.4,6.8v21c0,2.1,1.7,3.9,3.9,3.9h23c2.1,0,3.9-1.7,3.9-3.9V6.8c0-2.1-1.7-3.9-3.9-3.9ZM29.2,27.8c0,.9-.8,1.7-1.7,1.7H4.5c-.9,0-1.7-.8-1.7-1.7v-15.8h26.4v15.8ZM29.4,9.9H2.8v-3.1c0-.9.8-1.7,1.7-1.7h3v1.5c0,.7.5,1.2,1.2,1.2s1.2-.5,1.2-1.2v-1.5h12.4v1.5c0,.7.5,1.2,1.2,1.2s1.2-.5,1.2-1.2v-1.5h3c.9,0,1.7.8,1.7,1.7v3.1Z" style="fill: #fde0a0;"/>
  <path d="M19,25.9c1.2,0,3-.6,3.7-1.5l3.7,3.7c.3.3.7.3,1,0l.5-.4c.2-.3.2-.8,0-1.1l-3.6-3.5c1.9-2.8,1.2-6.8-1.7-8.8-2.2-1.5-5.2-1.4-7.4.2-1.6,1.2-2.5,3.1-2.5,5.1s.7,3.3,1.9,4.5,2.9,1.8,4.5,1.8ZM15.8,16.4c.8-.8,1.9-1.3,3.1-1.3s2.3.5,3.1,1.3c.8.8,1.3,1.9,1.3,3h0c0,.9-.2,1.8-.7,2.5-.2.3-.4.5-.6.7-.8.8-1.9,1.3-3.1,1.3s-2.3-.5-3.1-1.3c-1.7-1.7-1.7-4.5,0-6.2Z" style="fill: #fde0a0;"/>
  <path d="M16.6,20.3l1.2,1.1h0c.2.3.4.4.7.4h.1c.3,0,.6-.2.7-.5l2-3.1c.2,0,.2-.4.2-.6,0-.2-.2-.4-.5-.5-.2-.1-.3-.1-.5-.1-.3,0-.7.2-.8.4l-1.3,2.1-.4-.4s0,0,0-.1h0c0,.1-.4,0-.4,0-.4-.1-.8-.1-1,.2-.2.2-.3.4-.3.6s0,.5.3.6Z" style="fill: #fde0a0;"/>
  <rect x="6.3" y="14.1" width="2.9" height="2.9" rx=".3" ry=".3" style="fill: #fde0a0;"/>
  <rect x="6.3" y="19.1" width="2.9" height="2.9" rx=".3" ry=".3" style="fill: #fde0a0;"/>
  <rect x="6.3" y="24.2" width="2.9" height="2.9" rx=".3" ry=".3" style="fill: #fde0a0;"/>
</svg>