<?xml version="1.0" encoding="utf-8"?>
<!-- Generator: Adobe Illustrator 27.4.1, SVG Export Plug-In . SVG Version: 6.00 Build 0)  -->
<svg version="1.1" id="Layer_1" xmlns="http://www.w3.org/2000/svg" xmlns:xlink="http://www.w3.org/1999/xlink" x="0px" y="0px"
	 viewBox="0 0 128.8 18.1" style="enable-background:new 0 0 128.8 18.1;" xml:space="preserve">
<g>
	<defs>
		<rect id="SVGID_1_" x="1.6" y="1.1" width="125.8" height="17"/>
	</defs>
	<clipPath id="SVGID_00000137096384270583460450000004894160191811531678_">
		<use xlink:href="#SVGID_1_"  style="overflow:visible;"/>
	</clipPath>
	<g style="clip-path:url(#SVGID_00000137096384270583460450000004894160191811531678_);">
		<path style="fill:#FFFFFF;" d="M4.8,4.1h7.4v9.5H4.8V4.1z M24.7,3.4H22v11.8h7.7v-2.3h-5V3.4z M37.9,3.3c-3.6,0-6.3,2.5-6.3,6
			c0,3.4,2.7,6,6.3,6c3.6,0,6.3-2.6,6.3-6C44.2,5.9,41.5,3.3,37.9,3.3z M37.9,13c-1,0-1.9-0.4-2.6-1.1c-0.7-0.7-1.1-1.6-1.1-2.6
			c0-0.5,0.1-1,0.3-1.4C34.8,7.4,35,7,35.4,6.7c0.3-0.3,0.7-0.6,1.2-0.8c0.4-0.2,0.9-0.3,1.4-0.3c0.5,0,0.9,0.1,1.4,0.3
			c0.4,0.2,0.8,0.5,1.2,0.8c0.3,0.3,0.6,0.7,0.8,1.2s0.3,0.9,0.2,1.4c0,0.5-0.1,0.9-0.2,1.4c-0.2,0.4-0.4,0.8-0.8,1.2
			s-0.7,0.6-1.2,0.8C38.9,12.9,38.4,13,37.9,13z M53.2,5.6c1.2,0,2.3,0.5,3.2,1.3L57.9,5c-1.3-1.1-3-1.7-4.7-1.7
			c-3.7,0-6.4,2.6-6.4,6s2.7,6,6.3,6c1.7,0,3.4-0.6,4.8-1.5V8.7h-4.4v2.1h2v1.6c-0.7,0.4-1.5,0.6-2.3,0.6c-0.5,0-1,0-1.5-0.2
			c-0.5-0.2-0.9-0.4-1.3-0.8c-0.4-0.3-0.7-0.8-0.9-1.2c-0.2-0.5-0.3-1-0.3-1.5c0-0.5,0.1-1,0.3-1.5c0.2-0.5,0.5-0.9,0.9-1.2
			c0.4-0.3,0.8-0.6,1.3-0.8C52.2,5.7,52.7,5.6,53.2,5.6L53.2,5.6z M61.6,3.4h2.7v11.8h-2.7V3.4z M76.5,11l-5.7-7.6h-2.4v11.8h2.5
			V7.6l5.7,7.5H79V3.4h-2.5V11z M84,12.2c-0.2,0-0.4,0-0.6,0.1c-0.2,0.1-0.4,0.2-0.5,0.3c-0.1,0.1-0.2,0.3-0.3,0.5
			c-0.1,0.2-0.1,0.4-0.1,0.6c0,0.4,0.2,0.8,0.4,1.1c0.3,0.3,0.7,0.4,1.1,0.4c0.4,0,0.8-0.2,1.1-0.4c0.3-0.3,0.4-0.7,0.4-1.1
			c0-0.2,0-0.4-0.1-0.6c-0.1-0.2-0.2-0.4-0.3-0.5c-0.1-0.1-0.3-0.3-0.5-0.3C84.4,12.2,84.2,12.2,84,12.2z M94,5.6
			c1.2,0,2.3,0.5,3.2,1.3L98.7,5c-1.3-1.1-3-1.7-4.7-1.7c-3.7,0-6.4,2.6-6.4,6s2.7,6,6.3,6c1.7,0,3.4-0.6,4.8-1.5v-5h-4.4v2.1h2.1
			v1.6c-0.7,0.4-1.5,0.6-2.3,0.6c-0.5,0-1,0-1.5-0.2c-0.5-0.2-0.9-0.4-1.3-0.8c-0.4-0.3-0.7-0.8-0.9-1.2c-0.2-0.5-0.3-1-0.3-1.5
			c0-0.5,0.1-1,0.3-1.5c0.2-0.5,0.5-0.9,0.9-1.2S92,6,92.5,5.8C93,5.7,93.5,5.6,94,5.6L94,5.6z M107.9,3.3c-3.6,0-6.3,2.5-6.3,6
			c0,3.4,2.7,6,6.3,6c3.6,0,6.3-2.6,6.3-6C114.2,5.9,111.5,3.3,107.9,3.3z M107.9,13c-1,0-1.9-0.4-2.6-1.1s-1.1-1.6-1.1-2.6
			c0-0.5,0.1-1,0.3-1.4c0.2-0.4,0.4-0.8,0.8-1.2c0.3-0.3,0.7-0.6,1.2-0.8c0.4-0.2,0.9-0.3,1.4-0.3c0.5,0,0.9,0.1,1.4,0.3
			c0.4,0.2,0.8,0.5,1.2,0.8c0.3,0.3,0.6,0.7,0.8,1.2c0.2,0.4,0.3,0.9,0.2,1.4c0,0.5-0.1,1-0.2,1.4c-0.2,0.4-0.4,0.8-0.8,1.2
			c-0.3,0.3-0.7,0.6-1.2,0.8C108.9,12.9,108.4,13,107.9,13z M124.7,3.4l-3.2,8.9l-3.2-8.9h-2.9l4.6,11.8h2.7l4.7-11.8H124.7z"/>
		<path style="fill:#E11E3F;" d="M6.5,12l0.6-3.6c-0.3-0.2-0.5-0.6-0.7-1c-0.1-0.4-0.1-0.8,0-1.2C6.7,6,6.9,5.7,7.2,5.4
			c0.3-0.2,0.7-0.4,1.1-0.3v-4H3.5c-0.5,0-1,0.2-1.3,0.5C1.8,2,1.6,2.5,1.6,3v9.2c0,0.2,0,0.3,0.1,0.5c0.4,0.8,2,3.4,6.6,5.5v-5.9
			C7.7,12.2,7.1,12.1,6.5,12z"/>
		<path style="fill:#B52025;" d="M13.2,1.1H8.3v4c0.4,0,0.8,0.1,1.1,0.3C9.7,5.7,10,6,10.1,6.3c0.1,0.4,0.1,0.8,0,1.1
			c-0.1,0.4-0.3,0.7-0.6,1l0.6,3.6c-0.6,0.1-1.2,0.2-1.8,0.2v5.9c4.6-2,6.2-4.6,6.6-5.5c0.1-0.2,0.1-0.3,0.1-0.5V3
			c0-0.2,0-0.5-0.1-0.7c-0.1-0.2-0.2-0.4-0.4-0.6c-0.2-0.2-0.4-0.3-0.6-0.4C13.6,1.2,13.4,1.1,13.2,1.1z"/>
	</g>
</g>
</svg>
