<?xml version="1.0" encoding="utf-8"?>
<!-- Generator: Adobe Illustrator 27.4.1, SVG Export Plug-In . SVG Version: 6.00 Build 0)  -->
<svg version="1.1" id="Layer_1" xmlns="http://www.w3.org/2000/svg" xmlns:xlink="http://www.w3.org/1999/xlink" x="0px" y="0px"
	 viewBox="0 0 1440.7 364.1" style="enable-background:new 0 0 1440.7 364.1;" xml:space="preserve">
<path style="fill:#69A6C2;" d="M1415,148.3c-5-7.4-10.5-13.1-16.2-17.7c-1.4-1.3-2.9-2.4-4.5-3.3c-5.2-3.6-10.6-6.4-16.2-8.8
	c0,0,0,0,0,0c-6.4-2.8-13-5.1-19.8-7.4c-6-2.1-12-4.1-18.1-6.6c0,0-0.1,0-0.1,0c-6.2-2.5-12.3-5.5-18.5-9.2
	c-0.2-0.2-0.5-0.3-0.7-0.4c-8.2-5.1-16.3-11.6-24.3-20.6c-16.3-18.3-31.5-27.1-46.7-27.1c-0.1,0-0.2,0-0.4,0c-1.4,0-2.7,0.1-4.1,0.3
	c-1.4-1.9-2.8-3.8-4.2-5.5c-14.9-19-27.8-27.7-40.3-27.3c-6.5,0.2-12.9,2.9-19.3,8.3c0,0,0,0,0,0c-2,1.7-4.1,3.6-6.1,5.8
	c-5.6-2.7-11.4-2-22.2,7.3c-0.1,0.1-0.2,0.2-0.3,0.2c-2.3,2-4.9,4.5-7.8,7.4c-8.7,8.9-13.7,11.1-19.5,13.8
	c-5.1,2.3-10.9,4.9-20.1,12.5c-7.6,6.2-14,11.4-20.3,16.4c-9.8,7.8-19.1,15.2-30.6,25.2c-0.5,0.4-1,0.8-1.5,1.2
	c-0.9,0.7-1.9,1.5-2.8,2.2c-11,8.6-22.6,14.2-36.8,21.1c-8,3.9-17,8.3-27.2,13.8c-27.5,15-59.2,6.2-75.9-2.2
	c-13.3-7.8-25.5-12.1-37.4-13.2c-24.4-4-39.3-0.9-61.3,12.7c-5.6,3.5-11.5,7.4-17.8,11.7c-15.2,10.2-32.3,21.7-55.1,33.4
	c-4.1,2.1-8,3.6-11.8,4.8c-19.2,5.6-39.6-5.9-51.3-17.5c-1.3-1.3-2.6-2.6-3.8-3.8c0,0,0,0-0.1-0.1c-2.9-2.8-5.6-5.4-8.3-7.7
	c0,0-0.1-0.1-0.2-0.2c-8.4-7.2-16.2-11.9-24.5-11.9c-9.1,0-12.1,2.8-17,7.5c-3,2.9-6.7,6.4-13.2,10.6c-6.9,4.5-12.5,10.8-18.5,17.4
	c-8.8,9.8-17.9,19.9-31.7,24.6c-11.5,4-18.8,9.9-25.9,15.6c-7.5,6-14.6,11.7-26.1,15.2c-6.4,2-12.5,4.1-18,6.2
	c-1.7,0.5-3.4,1.1-5.1,1.8c-27.7,10.5-67.7,5.8-95.8-2l0,0.1c-15.2-4-28.3-8.3-38.2-11.6c-28.2-9.3-52.7-11.4-79.3-6.7
	c-26.8,4.7-58.1,16.7-101.5,38.9c-7.1,3.7-14.1,7.1-20.9,10.4c-28.1,12.3-43.3,14.4-58.1,16.4c-9.2,1.3-18.6,2.6-31,6.3
	c-1.1,0.3-2.1,0.6-3.2,1c-11.6,3.3-18.6,1.8-26.1,0.2c-6.8-1.5-13.9-3-24.6-0.7c-1.7,0.4-3.3,0.7-4.9,0.9v1.4c1.7-0.3,3.5-0.6,5.3-1
	c10.3-2.2,17.1-0.7,23.7,0.7c4.6,1,9.2,2,15,1.8c-14.9,4.1-28.8,7-44,7.5v1.4c19.2-0.7,36.3-5,56.1-10.9c0.5-0.1,1.1-0.3,1.6-0.5
	c0.5-0.2,1-0.3,1.6-0.5c12.2-3.7,21.2-4.9,30.7-6.3c10.9-1.5,22.1-3.1,38.4-8.6C83,313.3,43.9,324.8,0,325.5v1.4
	c19.9-0.3,39.1-2.8,58.5-7.5c26-6.4,53.7-17,90-34.6c6.7-3.2,13.7-6.7,21-10.5c83.2-42.6,125.1-50.1,179.3-32.1
	c11.9,3.9,24.7,8,38.3,11.5c4.5,1.3,9,2.4,13.6,3.4c16.5,3.8,33.9,6.7,52,8c21.9,1.5,43,0.3,62.7-3.6c12.7-2.5,25-6.2,36.9-11
	c0,0,0.1,0,0.1,0c5.8-2.3,11.5-5,17-7.8c45.4-18.8,107.4-27.3,170.5,16.9c45.4,31.7,84.8,53,120.6,65c48.4,16.2,88.9,14.6,120.5-4.9
	c69.6-43,94.5-31.8,149.1,0c17,9.9,29.7,17.2,40.7,21.8c13.5,6.4,26.7,9.6,39.9,9.6c9,0,18-1.5,27-4.6c8.7-2.3,15-0.7,21.6,1
	c4.4,1.1,8.9,2.3,14.2,2.3c2.8,0,5.9-0.3,9.4-1.2c7.2-1.8,13.3-4.5,19.2-7.1c10.5-4.6,20.5-9,35.6-7.4c4.9,0.6,9.9,1,14.9,1
	c15,0,30.2-3.7,45.5-15.6c14.5-11.2,28.5-17.7,42.8-20.9v-1.5c-14.6,3.2-29.1,9.9-44,21.4c-20.1,15.6-39.4,16.8-59.1,14.2
	c-0.1,0-0.2,0-0.4,0c-4-0.5-8.1-1.3-12.2-2c-3-0.7-5.6-1.2-7.9-1.6c-0.2,0-0.4-0.1-0.6-0.1c-22.4-4.5-45.5-9.2-69.4,2.1
	c-27.7,13.1-42.1,16.8-56.9,14.8c-15.7-2.2-32-11.3-59.4-27.3c-27.8-16.2-47.6-26.9-69.8-28.3c-11.4-0.7-23.2,1.1-36.5,5.7
	c11.8-5.6,22.9-10,33.7-14.4c24.9-10,48.4-19.4,77.2-41.5c24.2-18.6,48.3-24.7,69.5-30.1c20.3-5.2,37.9-9.7,48.5-24.1
	c2.8-3.8,5.9-7,9.2-9.9c8-7,18.3-8.9,29.1-10.9c11.5-2.1,23.4-4.3,34.1-12.7c0.5-0.4,1-0.8,1.4-1.2c3.6-2.4,6.4-3.4,9.1-4.4
	c4.2-1.4,8.5-2.9,15.3-9.5c7.7-7.5,18.5-12.1,28.3-12.2c4.8,0,9.2,1.1,12.9,3.2c7.3,5,14.2,11.6,20.3,20.7
	c8.9,13,17.6,21.1,27.2,26.1v-1.7C1431.7,168.5,1423.4,160.6,1415,148.3L1415,148.3z M1316.9,330.4c2.6,0.5,5.2,1.1,7.8,1.6
	c0.9,0.2,1.9,0.4,2.8,0.5c-10.3,0.7-18.2,4.2-26.5,7.8c-5.8,2.6-11.8,5.2-18.8,7c-9.3,2.3-16,0.6-22.5-1.1
	c-4.8-1.2-9.7-2.5-15.6-2.1c0.4-0.2,0.8-0.4,1.2-0.5c12.8-5.6,19.8-5.3,26.7-5c4.8,0.2,9.7,0.4,16.4-1.4c5-1.3,8.4-2.8,11.4-4
	C1305.1,330.8,1308.6,329.3,1316.9,330.4L1316.9,330.4z M1197.8,347.7c14.6,0,29.6-5.7,50.4-15.5c20.7-9.8,41-7.2,60.6-3.4
	c-3.7,0.4-6.4,1.6-9.7,3c-2.9,1.3-6.2,2.7-11.1,4c-6.4,1.7-11,1.5-15.8,1.3c-7.1-0.3-14.4-0.5-27.6,5.2c-2.6,1.1-5.1,2.1-7.7,3
	c-1.1,0.3-2.3,0.7-3.5,1.1c-14.1,4.1-28.1,4.4-42.4,0.9C1193.2,347.6,1195.5,347.7,1197.8,347.7L1197.8,347.7z M1333.7,103.2
	c-4.2,0.2-7.5,2.9-12.6,6.9l-0.5,0.4c-4.5,3.6-11,6.1-17.8,8.8c-4.5,1.7-9.1,3.6-13.1,5.7c-4.3,2.2-7.9,2.5-9.7,1.8
	c-0.6-0.3-1-0.7-1-1.1c0-0.4,0.3-2.1,4.7-4.2c5.9-2.8,5.7-5.4,5.5-7.7c-0.2-2.1-0.3-4,3.8-6.3c2.1-1.2,4.2-2.7,6.5-4.2
	c7.4-5,15-10.2,20.5-7.3C1324.5,98.7,1329.1,101.1,1333.7,103.2z M1287,66.3c1.7,1.6,3.3,3.2,5,5c-7.5-5-14.2-7.3-21-7.2
	c-9.5,0.1-19.8,4.6-34.4,15.7c8.1-8.2,15.9-15.6,25.9-17.9C1274.3,59.1,1283.1,62.5,1287,66.3L1287,66.3z M1295.4,75.7
	c-9.1-4.5-18.1-4.7-28-0.4c-10.8,4.6-21.2,13.9-32.2,23.7c-1.2,1.1-2.5,2.2-3.8,3.3c-15.7,13.9-27.3,16.3-39.6,18.7
	c-6,1.2-12.2,2.5-19,5.1c-9.4,3.7-16.2,3.5-23.5,3.3c-4.7-0.1-9.4-0.2-14.9,0.8c11.2-4.3,21-6.4,30.2-8.3c8-1.7,15.7-3.3,23.7-6.3
	c0.2-0.1,0.4-0.1,0.6-0.2c9-3.4,18.2-8.6,28.2-17.6c1.8-1.6,3.4-3.1,5.1-4.5c0.9-0.8,1.8-1.5,2.7-2.3c21.5-18.4,34.5-25.6,46.1-25.7
	C1278.7,65.4,1286.3,68.6,1295.4,75.7L1295.4,75.7z M1262,60.5c-11.2,2.6-19.6,11.1-28.5,20.1c-3.2,3.3-6.5,6.6-9.9,9.7
	c-0.8,0.7-1.7,1.5-2.6,2.2c0,0-0.1,0-0.1,0.1c-1.6,1.4-3.3,2.9-5,4.5c-3.7,3.3-7.3,6.1-10.8,8.5c4.8-4.4,8.1-9.2,11.4-14.1
	c2.9-4.2,5.9-8.6,9.9-12.8c13.2-13.7,25.6-21.1,36.8-22c5.9-0.4,11.6,1,17,4.2C1275.4,59.3,1269.2,58.8,1262,60.5L1262,60.5z
	 M1268.9,53.2c2.2,1.1,4.3,2.4,6.5,3.8c-4-1.4-8.1-2-12.4-1.7c-11.7,0.9-24.4,8.4-38,22.5c-4.2,4.3-7.2,8.7-10.1,13
	c-6.1,9-11.9,17.5-27.4,23.8c-7.7,2.8-15.3,4.4-23.4,6.1c-12.6,2.6-26.6,5.5-43.5,14.2c-0.1,0-0.2,0.1-0.3,0.1
	c-5,2.6-10.3,5.7-15.9,9.4c-27.7,18.4-53.7,28.4-92.2,34.6c14.6-5.2,28.6-15,44.9-28.4c20.2-16.5,46.3-24.8,71.5-32.7
	c10.8-3.4,21.3-6.7,31-10.6c0,0,0,0,0.1,0c2.2-0.9,4.3-1.8,6.4-2.7c2.4-1,4.7-1.9,6.9-2.8c16.7-6.8,27.7-11.2,39.5-23.3
	C1226.7,64.2,1247.8,42.7,1268.9,53.2L1268.9,53.2z M1152.1,108.7c9.9-5.1,17.1-10.8,23-18.2c5.3-6.6,8.8-8.6,12.2-10.6
	c3.3-1.9,6.7-3.8,11.4-9.6c11.2-13.7,24.7-23,34.4-23.8c2.8-0.2,5.3,0.3,7.3,1.6c-17.3,4.3-32.2,19.5-44.9,34.5
	c-7.6,9-18.1,15.5-30.1,20.8c-2,0.8-4,1.7-6.2,2.6C1156.9,107,1154.5,107.9,1152.1,108.7z M1249.6,48.3c0.1,0,0.2,0,0.3,0
	c2.3,0,4.6,0.2,6.9,0.6c-6,0.1-12.4,2.2-19.1,6.2c-10.2,6.1-19.5,15.5-26.3,22.4c-9.7,9.8-18.8,14.6-31.1,19.7
	c6.3-3.9,11.9-8.5,16.6-13.9C1211.5,66.2,1229.2,48.5,1249.6,48.3L1249.6,48.3z M1239.9,42.4c1.3,1.6,2.6,3.3,3.8,5.1
	c-0.4,0.1-0.9,0.2-1.3,0.3c-2.5-1.9-5.7-2.8-9.5-2.5c-10.3,0.8-24,10.2-35.7,24.4c-4.6,5.6-7.7,7.4-11,9.2c-0.7,0.4-1.5,0.8-2.3,1.3
	c1.8-2.2,3.5-4.5,5.3-6.7c9.1-11.6,18.4-23.5,29.9-29.3C1235.1,36.2,1238.7,40.9,1239.9,42.4z M1236.8,38.6c0,0,0.1,0.1,0.1,0.1
	c-4.3-1.2-10.4,0.2-18.7,4.4c-11.8,6-21.3,18-30.4,29.7c-3.1,3.9-6.3,8-9.5,11.8c-1.4,1.4-3,3.1-4.7,5.2
	c-9.1,11.5-21.7,19.1-43.3,26.2c-0.7,0.2-1.4,0.4-2.1,0.7c-19.5,6.1-39.4,12.5-57,22.6c11.1-8.7,20.1-14.2,32.2-17.9
	c16.9-5.1,38-11.5,53.1-23.2c8.3-6.4,14.6-14.7,21.3-23.6c5.1-6.8,10.4-13.8,16.8-19.9c12.4-12,25.9-19.6,34.5-19.4
	C1232.4,35.4,1234.9,36.5,1236.8,38.6L1236.8,38.6z M1183,23.5c6.1-5.1,12.1-7.6,18.1-7.8c3-0.1,6.1,0.4,9.2,1.5
	c-7.5-0.1-15.1,4.5-19.7,7.9c-3.5,2.6-6.8,2.8-8.2,1.7C1181.5,26,1181.7,24.8,1183,23.5L1183,23.5L1183,23.5z M1180.2,26.1
	c0.1,0.7,0.5,1.3,1,1.7c0.8,0.6,2,1,3.4,1c2.1,0,4.6-0.8,7.1-2.6c5.7-4.2,16.5-10.5,24.8-5.9h0c5.3,3.1,10.9,7.9,16.8,14.4
	c-1.3-0.4-2.7-0.7-4.2-0.7c-11.1-0.3-25.8,10.1-35.9,19.9c-6.4,6.2-11.7,13.2-16.9,20c-6.6,8.8-12.9,17-21,23.3
	c-14.8,11.5-35.7,17.8-52.5,22.9c-17.6,5.3-28.5,14.3-48.2,30.7l-0.8,0.7c-20.8,16.8-37.9,27.7-57.4,29.9
	c-20.3,2.3-41.9-4.9-69.6-23.3c10.8,4.2,23.9,6.6,37.7,6.6c0.6,0,1.2,0,1.8,0c21.4-0.3,40.5-6,52.4-15.6
	c10.8-8.6,20.8-13.4,30.6-18.1c12.4-5.9,24-11.4,35.1-24c8-9.2,18.9-14.2,30.4-19.5c15.9-7.3,33.9-15.6,46.6-36.8
	C1168,39.9,1174.1,31.8,1180.2,26.1L1180.2,26.1z M1154.3,37.1c11.1-9.7,16-9.4,20.3-7.5c-0.2,0.2-0.4,0.4-0.6,0.7
	c-6.9-1.9-13.4,6.7-21.5,17.6c-3.2,4.3-6.4,8.7-10.1,12.9c-6.1,7.1-13.5,9.9-20.9,12c6-3.5,10.7-8.1,14.9-12.3
	c1.4-1.4,2.7-2.7,4-3.9c3.9-3.6,5.7-7,7.4-10.3C1149.5,43.1,1151,40.1,1154.3,37.1L1154.3,37.1z M1086.7,87.1
	c6.3-5,12.7-10.2,20.3-16.4c9.1-7.5,14.8-10,19.8-12.3c6-2.7,11.1-5,20-14.1c0.2-0.2,0.4-0.4,0.5-0.5c-0.3,0.6-0.7,1.2-1,1.8
	c-1.7,3.2-3.4,6.5-7.1,9.9c-1.4,1.3-2.7,2.6-4.1,4c-5.7,5.7-12.1,12.1-21.7,15.4c-5.2,1.4-10,3.2-13.8,6.6
	c-5,4.5-12.1,8.8-20.3,13.8c-3.7,2.2-7.6,4.6-11.5,7.2C1074.3,97,1080.4,92.1,1086.7,87.1L1086.7,87.1z M940.8,158.3
	c4.1,0.6,8.2,0.9,12.3,0.9c12.6,0,24.3-2.8,34.5-8.4c10.1-5.5,19.1-9.9,27.1-13.7c15.5-7.5,27.9-13.5,39.9-23.5
	c8.5-6.7,17.6-12.2,25.7-17.2c8.2-5,15.4-9.4,20.5-13.9c2.8-2.5,6.2-4,9.9-5.2c1.2-0.3,2.2-0.6,3.3-1c1.3-0.4,2.6-0.7,3.9-1
	c8.6-2.2,18.4-4.7,26-13.6c3.7-4.3,7-8.7,10.1-13c7.2-9.6,13.4-18,19-17.1c-4.2,5-8.5,11.2-12.9,18.5
	c-12.5,20.8-29.5,28.6-45.9,36.2c-11.7,5.4-22.7,10.5-30.9,19.9c-10.8,12.3-22.3,17.8-34.5,23.6c-9.8,4.7-20,9.5-30.9,18.3
	c-22.9,18.4-71,20.1-98.4,4.8c0,0,0,0-0.1,0C926.1,155.3,933.6,157.3,940.8,158.3L940.8,158.3z M728.1,197.9c0,0,0.2,0,0.2-0.1
	c3.7-1.1,7.6-2.7,11.7-4.8c22.9-11.7,40.2-23.3,55.3-33.5c6.3-4.2,12.2-8.2,17.7-11.6c17.7-11,30.8-15,48.1-13.8
	c-3.4,0.3-6.9,0.9-10.3,1.7c-21,5-40.7,19.1-65.6,36.8c-6,4.3-12.3,8.8-18.9,13.4c-29.1,20.1-54.6,21-81.6,21.9
	c-15.2,0.5-31.4,1.1-49.5,5c18.5-5.9,32.7-8.6,44.5-10c0,0,0.1,0,0.1,0c7.7-0.9,14.4-1.2,20.6-1.5
	C710.4,201.1,718.9,200.7,728.1,197.9L728.1,197.9z M683.5,187.5c8.3,6,18.7,10.9,29.4,11.8c-4,0.4-8.1,0.6-12.6,0.8
	c-6.3,0.3-13,0.6-20.8,1.5c-9.9,0.6-19.2,1.4-28,2.4c4.6-2,6.7-4.5,8.7-6.9c0.8-1,1.7-2.1,2.8-3.1c0.7-0.7,1.4-1.4,2.2-2.2
	C669.7,187.1,674.4,182.2,683.5,187.5L683.5,187.5z M674.6,180c1.4,1.4,2.9,2.8,4.5,4.1c-7.1-1.7-11.6,3-15.4,6.9
	c-0.7,0.8-1.4,1.5-2.1,2.1c-1.1,1.1-2,2.1-2.9,3.2c-3.2,3.9-6.2,7.6-20,9.3l0,0.2c-14.1,2.3-27,5.3-38.8,9.1
	c-2.9,0.9-5.7,1.9-8.4,2.9c4.1-3.3,7-7.1,9.9-11.1c5.1-6.4,13.9-9.3,22.5-12c7.2-2.3,13.9-4.5,18-8.6c4.6-4.7,13.6-12.6,21.5-12.7
	c2.8,0,5.2,0.9,7.4,2.9C672.1,177.4,673.3,178.7,674.6,180L674.6,180z M666.7,172.4c-1.1-0.3-2.2-0.4-3.3-0.4
	c-8.1,0.1-16.9,7.3-22.8,13.3c-3.7,3.8-10.3,5.9-17.3,8.2c-6.2,2-12.6,4.1-17.7,7.5c3.7-4.8,8-9.5,15.1-13.4
	c6.4-3.5,11.8-7.8,16.6-11.7c9.8-7.8,16.8-13.5,25-7.4C663.8,169.7,665.3,171,666.7,172.4L666.7,172.4z M534,232.3
	c7-5.6,14.2-11.4,25.4-15.3c14.2-4.9,23.4-15.2,32.4-25.1c5.9-6.5,11.5-12.7,18.2-17.1c6.6-4.3,10.3-7.9,13.4-10.8
	c4.9-4.7,7.4-7,15.7-7c6.2,0,12.3,3,18.7,7.8c-7.1-1.4-13.9,4-21.5,10.2c-4.8,3.8-10.2,8.1-16.4,11.5c-9.6,5.2-14.3,11.8-18.8,18.2
	c-4.3,6-8.3,11.7-16.2,15.9c-3.1,1.3-6.1,2.6-9,3.9c-15.2,6.1-32.1,11-48.6,15.9c-2.7,0.8-5.4,1.6-8,2.4
	C524.9,239.5,529.5,235.8,534,232.3L534,232.3z M506.9,247.9c0,0,0.1,0,0.2,0c6.6-2.1,13.6-4.2,20.9-6.3c12-3.6,24.3-7.2,36-11.2
	c-4.4,2.4-8.6,4.7-12.7,7.1c-15.8,9.1-26.8,10.1-38.5,11.1c-3.9,0.4-7.9,0.7-12.1,1.4C502.7,249.2,504.8,248.6,506.9,247.9z
	 M568.4,241.5c-5.5,2.3-11,4.8-16.5,7.6c-40.7,16.4-82.5,17.3-118.7,12.6c1.4,0.1,2.9,0.2,4.3,0.2c2.4,0.1,4.7,0.1,7,0.1
	c15.4,0,28.8-2.1,39.8-6.2c11.2-4.2,20.1-5,28.8-5.8c11.9-1.1,23.1-2.1,39.3-11.4c7.9-4.6,15.9-8.9,24.6-13c2.3-0.9,4.5-1.9,6.7-2.8
	c0,0,0.1,0,0.1,0c1.3-0.6,2.7-1.2,4-1.8c19-7.6,42.2-13.6,75.2-16.6c-13.1,2.6-28.9,7.1-49,14.8c-11.1,4-22.9,9.4-35.5,16.9
	C575,237.9,571.7,239.8,568.4,241.5L568.4,241.5z M1261.6,175c-3.4,2.9-6.6,6.2-9.5,10.1c-10.3,14-27.6,18.4-47.5,23.5
	c-21.4,5.4-45.6,11.6-70.1,30.4c-28.6,22-52,31.3-76.8,41.2c-16.1,6.5-32.8,13.1-51.8,23.6c-8,4-16.6,8.8-26,14.6
	c-31,19.2-71,20.8-118.8,4.8c-35.6-11.9-74.9-33.1-120.2-64.8c-32.2-22.5-67.2-33.4-104-32.3c-19.3,0.6-38.9,4.4-58.4,11.4
	c0.3-0.2,0.6-0.3,0.8-0.5c43.3-25.7,76.4-26.8,105.5-27.8c27.3-0.9,53.1-1.8,82.6-22.2c6.6-4.6,12.9-9.1,19-13.4
	c33-23.5,57.2-40.8,86.2-38.2c0.2,0,0.4,0.1,0.6,0.1v0c9.8,1,20.2,4.2,31.5,10.2c1.6,1,3.4,2,5.2,2.9c0.9,0.5,1.8,1.1,2.7,1.6
	c1.8,1.3,3.7,2.5,5.8,3.7c0.9,0.6,1.7,1.2,2.6,1.8c30.5,21.2,53.9,29.5,75.9,27c0.3,0,0.5-0.1,0.8-0.1c47.4-6.1,76.6-16.2,108-37.1
	c5.6-3.8,11-6.9,16-9.4c11.5-5.4,19.3-5.3,27.5-5.1c7.1,0.2,14.5,0.3,24.3-3.5c6.7-2.6,12.8-3.8,18.7-5c12.6-2.5,24.4-5,40.5-19.1
	c1.3-1.1,2.5-2.2,3.8-3.3c10.9-9.8,21.3-19,31.8-23.5c11.5-4.9,21.9-3.6,32.6,4.3c5.2,5.1,10.4,9.3,15.7,12.8
	c-5.7,0-12.2,4.4-18.2,8.4c-2.2,1.5-4.4,2.9-6.4,4.1c-4.8,2.8-4.6,5.3-4.5,7.6c0.2,2.2,0.3,4.1-4.6,6.4c-3.6,1.7-5.6,3.6-5.6,5.4
	c0,1,0.7,1.8,1.9,2.3c0.8,0.4,1.9,0.5,3,0.5c2.5,0,5.5-0.8,8.4-2.4c4-2.1,8.5-3.9,12.9-5.6c6.7-2.6,13.6-5.3,18.3-9l0.5-0.4
	c7.1-5.6,10.2-8,17-5.4c6.2,2.5,12.3,4.6,18.3,6.7c3.2,1.1,6.5,2.2,9.7,3.4c-4.7-0.5-9.1,0-13.3,1.5c-7.8,2.8-15.3,9-23.5,19.6
	c-7.2,9.3-19.7,14.2-33,19.3c-11.1,4.3-23.2,9-33.5,16.9C1263.2,173.7,1262.4,174.3,1261.6,175L1261.6,175z M1326.4,150.2
	c-1.1,0.8-2.3,1.6-3.6,2.7c-9.8,6.9-20.7,8.9-31.3,10.8c-5.6,1-11,2-16.1,3.7c7.3-4,15.1-7,22.8-10c13.5-5.3,26.2-10.2,33.7-19.9
	c16.9-21.8,30-23.3,44.2-18.2c-14.4-1.8-25.8,8.9-37.7,20.1C1334.6,143,1330.6,146.8,1326.4,150.2z M1380.4,123.8c0,0-0.1,0-0.2,0
	c-10.2,0.1-21.6,4.9-29.6,12.7c-6.5,6.3-10.5,7.7-14.7,9.1c-1,0.4-2.1,0.7-3.2,1.2c2.4-2.1,4.7-4.3,7-6.5
	c14.8-13.8,27.6-25.8,45.9-16.5c0.4,0.2,0.8,0.5,1.2,0.7C1384.8,124,1382.7,123.8,1380.4,123.8L1380.4,123.8z"/>
</svg>
